<?xml version="1.0" standalone="no"?>
<!DOCTYPE svg PUBLIC "-//W3C//DTD SVG 20010904//EN"
 "http://www.w3.org/TR/2001/REC-SVG-20010904/DTD/svg10.dtd">
<svg version="1.0" xmlns="http://www.w3.org/2000/svg"
 width="189.000000pt" height="164.000000pt" viewBox="0 0 189.000000 164.000000"
 preserveAspectRatio="xMidYMid meet">

<g transform="translate(0.000000,164.000000) scale(0.100000,-0.100000)"
fill="#000000" stroke="none">
<path d="M843 1393 c9 -2 23 -2 30 0 6 3 -1 5 -18 5 -16 0 -22 -2 -12 -5z"/>
<path d="M953 1393 c9 -2 23 -2 30 0 6 3 -1 5 -18 5 -16 0 -22 -2 -12 -5z"/>
<path d="M778 1383 c7 -3 16 -2 19 1 4 3 -2 6 -13 5 -11 0 -14 -3 -6 -6z"/>
<path d="M1038 1383 c7 -3 16 -2 19 1 4 3 -2 6 -13 5 -11 0 -14 -3 -6 -6z"/>
<path d="M1078 1373 c7 -3 16 -2 19 1 4 3 -2 6 -13 5 -11 0 -14 -3 -6 -6z"/>
<path d="M1161 1346 c10 -9 69 -36 69 -32 0 6 -55 36 -66 36 -4 0 -5 -2 -3 -4z"/>
<path d="M574 1309 c-68 -43 -183 -164 -217 -227 -35 -65 -29 -69 9 -4 46 80
115 153 194 204 84 55 87 58 74 58 -6 0 -32 -14 -60 -31z"/>
<path d="M1265 1288 c117 -89 194 -189 237 -308 15 -41 27 -67 27 -58 1 30
-40 127 -77 183 -46 68 -140 164 -184 188 l-33 18 30 -23z"/>
<path d="M865 1048 c-49 -52 -50 -53 -5 -10 35 32 49 39 57 31 9 -9 10 -7 6
10 -3 11 -6 21 -7 21 -1 0 -24 -24 -51 -52z"/>
<path d="M312 983 c-6 -15 -14 -41 -17 -58 -3 -16 4 -6 15 24 20 55 22 85 2
34z"/>
<path d="M801 964 c0 -11 3 -14 6 -6 3 7 2 16 -1 19 -3 4 -6 -2 -5 -13z"/>
<path d="M1128 943 c7 -3 16 -2 19 1 4 3 -2 6 -13 5 -11 0 -14 -3 -6 -6z"/>
<path d="M630 924 c0 -8 5 -12 10 -9 6 4 8 11 5 16 -9 14 -15 11 -15 -7z"/>
<path d="M950 936 c0 -3 9 -10 20 -16 11 -6 20 -8 20 -6 0 3 -9 10 -20 16 -11
6 -20 8 -20 6z"/>
<path d="M1169 931 c10 -7 11 -13 1 -32 l-11 -24 20 25 c21 27 19 40 -7 40
-13 0 -14 -2 -3 -9z"/>
<path d="M708 923 c18 -2 45 -2 60 0 15 2 0 4 -33 4 -33 0 -45 -2 -27 -4z"/>
<path d="M834 914 c-18 -14 -18 -15 4 -4 12 6 22 13 22 15 0 8 -5 6 -26 -11z"/>
<path d="M646 865 c3 -22 10 -44 14 -49 5 -5 5 8 -1 30 -15 57 -20 64 -13 19z"/>
<path d="M1532 880 c0 -14 2 -19 5 -12 2 6 2 18 0 25 -3 6 -5 1 -5 -13z"/>
<path d="M281 874 c0 -11 3 -14 6 -6 3 7 2 16 -1 19 -3 4 -6 -2 -5 -13z"/>
<path d="M1082 815 c0 -16 2 -22 5 -12 2 9 2 23 0 30 -3 6 -5 -1 -5 -18z"/>
<path d="M1543 765 c0 -44 2 -61 4 -37 2 23 2 59 0 80 -2 20 -4 1 -4 -43z"/>
<path d="M743 735 c0 -38 2 -53 4 -32 2 20 2 52 0 70 -2 17 -4 1 -4 -38z"/>
<path d="M1073 753 c-1 -19 1 -22 8 -12 11 17 12 39 2 39 -5 0 -9 -12 -10 -27z"/>
<path d="M1176 658 l5 -47 -53 -4 -53 -3 63 -2 62 -2 -6 28 c-16 64 -24 77
-18 30z"/>
<path d="M281 669 c-1 -20 39 -152 44 -147 2 1 -7 39 -20 83 -13 44 -24 73
-24 64z"/>
<path d="M660 660 c-6 -11 -8 -20 -6 -20 3 0 10 9 16 20 6 11 8 20 6 20 -3 0
-10 -9 -16 -20z"/>
<path d="M1530 657 c0 -13 -9 -50 -20 -82 -23 -68 -20 -85 4 -24 18 45 33 129
22 129 -3 0 -6 -11 -6 -23z"/>
<path d="M1055 660 c-3 -6 1 -7 9 -4 18 7 21 14 7 14 -6 0 -13 -4 -16 -10z"/>
<path d="M634 619 c-7 -13 13 -29 36 -28 8 0 5 4 -8 10 -13 5 -20 13 -17 19 3
5 4 10 1 10 -3 0 -8 -5 -12 -11z"/>
<path d="M820 626 c0 -3 9 -10 20 -16 11 -6 20 -8 20 -6 0 3 -9 10 -20 16 -11
6 -20 8 -20 6z"/>
<path d="M860 530 c6 -11 13 -20 16 -20 2 0 0 9 -6 20 -6 11 -13 20 -16 20 -2
0 0 -9 6 -20z"/>
<path d="M976 502 l-19 -27 24 22 c12 12 21 24 18 27 -2 2 -13 -8 -23 -22z"/>
<path d="M330 507 c0 -28 87 -153 141 -202 21 -19 14 -8 -18 30 -28 33 -67 87
-87 120 -20 33 -36 56 -36 52z"/>
<path d="M886 487 c3 -10 9 -15 12 -12 3 3 0 11 -7 18 -10 9 -11 8 -5 -6z"/>
<path d="M1462 459 c-12 -21 -21 -39 -18 -39 7 0 49 71 44 75 -2 2 -14 -14
-26 -36z"/>
<path d="M925 460 c-4 -6 -11 -8 -16 -5 -5 4 -9 1 -9 -4 0 -16 16 -13 30 4 7
8 10 15 7 15 -3 0 -9 -5 -12 -10z"/>
<path d="M1404 373 c-15 -20 -23 -33 -16 -29 13 8 56 66 49 66 -3 0 -17 -17
-33 -37z"/>
<path d="M1315 283 c-27 -25 -36 -37 -20 -25 28 19 84 73 74 72 -2 -1 -26 -22
-54 -47z"/>
<path d="M557 237 c16 -26 202 -98 247 -96 12 0 -6 7 -39 15 -33 8 -94 31
-137 52 -42 20 -74 34 -71 29z"/>
<path d="M1181 200 c-77 -35 -154 -53 -256 -60 l-100 -7 82 -1 c45 -1 112 5
150 14 63 14 173 58 173 69 0 7 0 7 -49 -15z"/>
</g>
</svg>
